<svg width="149" height="72" viewBox="0 0 149 72" fill="none" xmlns="http://www.w3.org/2000/svg">
<path d="M44.0996 39.6922C43.9989 37.0269 43.5963 34.3617 43.5963 31.6964C43.5963 29.5247 43.9989 27.2543 43.1936 25.1814C43.1936 24.9839 43.2943 24.6878 43.2943 24.4904C43.4956 23.4045 39.9724 23.9968 39.469 24.9839C39.167 25.2801 38.9657 25.5762 39.0664 25.9711C39.0664 26.0698 39.167 26.1685 39.167 26.2672C38.4624 29.426 37.5564 32.5848 36.5498 35.645C36.1471 36.8295 35.6438 38.0141 35.2411 39.1986C34.6372 38.1128 34.0332 37.0269 33.5299 35.8424C32.1206 32.3874 30.9126 28.9325 29.2013 25.6749C29.4026 24.1942 25.9801 24.2929 25.2754 25.6749C24.4701 27.353 24.5708 29.0312 24.8728 30.9067C25.1747 32.9797 25.2754 34.954 25.2754 37.0269C25.2754 40.9755 25.6781 44.924 25.6781 48.8725C25.2754 49.2674 25.1747 49.7609 25.5774 50.2545C25.7787 50.4519 25.9801 50.6494 26.1814 50.8468C27.0874 51.5378 29.7046 50.9455 29.7046 49.5635C29.7046 45.4176 29.4026 41.3703 29.302 37.2244C29.302 36.8295 29.302 36.4347 29.302 36.0398C29.4026 36.1385 29.4026 36.3359 29.5033 36.4347C30.1073 38.0141 30.8119 39.5935 31.7179 41.0742C32.6239 42.5549 33.0265 44.1343 33.5299 45.7137C33.3285 45.9111 33.2279 46.2073 33.3285 46.4047C33.3285 46.6021 33.4292 46.7008 33.6305 46.7995C34.2345 47.3918 35.5431 47.0957 36.1471 46.7995C36.4491 46.7008 36.7511 46.5034 36.9524 46.4047C37.2544 46.2073 37.8584 45.7137 37.6571 45.2201C37.6571 45.1214 37.5564 45.0227 37.5564 44.924C38.0597 43.6407 38.2611 42.3575 38.5631 40.9755C38.8651 39.5935 39.3684 38.2115 39.8717 36.8295C39.9724 37.4218 39.9724 38.1128 40.073 38.7051C40.2744 41.2716 40.073 43.7394 40.073 46.306C40.073 47.1944 40.1737 47.8854 40.2744 48.7738C40.375 49.07 40.677 50.5507 40.5763 50.6494C39.9724 51.2416 40.1737 51.9326 40.979 52.0313C41.885 52.2288 43.0929 51.9326 43.7976 51.3404C45.0056 50.2545 44.4016 48.4777 44.2003 47.0957C43.5963 44.7266 44.0996 42.0613 44.0996 39.6922Z" fill="white"/>
<path d="M52.5556 40.384C52.4549 38.4097 51.7503 36.5342 51.7503 34.5599C51.7503 32.2895 51.9516 30.0191 51.5489 27.7487C51.4483 27.0577 47.4217 27.8474 47.5224 28.8345C47.8244 30.9075 47.7237 33.0792 47.7237 35.1522C47.7237 37.2252 48.227 39.002 48.4283 41.075C48.7303 43.148 48.3277 45.2209 48.529 47.2939C48.6297 48.281 49.3343 50.0579 48.6297 50.8476C48.227 51.3412 50.1396 51.1437 50.2403 51.1437C51.0456 51.045 52.0522 50.7489 52.5556 50.1566C53.2602 49.3669 52.7569 47.7875 52.6562 46.8003C52.4549 44.5299 52.6562 42.457 52.5556 40.384Z" fill="white"/>
<path d="M69.1649 37.0275C67.051 34.2636 63.2258 36.2378 60.5078 35.4481C59.0985 35.0533 59.0985 33.1777 59.0985 32.0919C59.0985 30.7099 58.9979 29.3279 58.7965 27.9459C58.6959 26.8601 58.7965 25.8729 59.6019 25.0832C59.7025 24.9845 60.5078 24.7871 60.4072 24.7871C60.8098 24.6884 61.1118 24.6884 61.5145 24.6884C63.1251 24.5897 66.2457 24.8858 65.6417 27.1562C65.3397 28.1433 69.2656 27.5511 69.5676 26.5639C70.7756 22.0231 62.1185 22.9115 59.7025 23.5038C57.4879 24.0961 54.9713 25.3794 54.8706 27.8472C54.77 29.0318 55.1726 30.2163 55.1726 31.4009C55.2733 32.7829 54.9713 34.1649 55.4746 35.5468C56.5819 38.5082 61.1118 37.1263 63.3264 37.3237C67.2523 37.6198 66.0444 42.7529 66.145 45.2207C66.145 46.504 67.353 48.6757 66.3464 49.6628C65.7424 50.3538 64.3331 50.3538 63.5278 50.4525C62.7224 50.5512 61.3131 50.7487 60.7092 49.959C59.7025 48.577 60.8098 46.2079 60.6085 44.5297C60.4072 43.5426 56.3806 44.431 56.5819 45.5169C56.8839 48.1821 55.1726 51.6371 58.9979 52.1307C61.5145 52.4268 64.2324 51.9332 66.6483 51.2422C67.8563 50.8474 68.9636 50.2551 69.9703 49.4654C70.9769 48.577 70.6749 47.0963 70.3729 45.9117C69.6683 42.9503 71.0776 39.5941 69.1649 37.0275Z" fill="white"/>
<path d="M86.7812 36.83C86.6805 33.0789 86.0765 29.3278 86.0765 25.5767C86.0765 23.6024 82.05 24.2934 82.05 25.8729C82.05 29.4265 82.5533 32.9802 82.7546 36.6326C82.7546 36.7313 82.7546 36.7313 82.7546 36.83C80.7413 36.83 78.8287 37.0274 76.8154 37.0274C77.0168 32.3879 76.2114 27.8471 76.4128 23.2076C76.4128 22.6153 72.4869 23.1089 72.3862 24.2934C72.1849 28.7355 72.9902 33.1776 72.8895 37.6197C72.7889 39.7914 72.6882 41.8644 72.5875 44.0361C72.5875 45.1219 72.7889 46.2078 72.8895 47.2936C72.9902 48.2808 73.3928 49.6627 73.0909 50.5512C72.8895 51.3409 76.7148 50.8473 77.0168 49.8602C77.5201 48.0833 76.8154 45.8129 76.6141 44.0361C76.4128 42.358 76.6141 40.5811 76.7148 38.8043C78.728 38.7056 80.842 38.5081 82.8553 38.8043C82.9559 40.1863 83.0566 41.5683 83.1573 42.9502C83.2579 44.1348 83.3586 45.2206 83.3586 46.4052C83.3586 47.3923 83.4593 48.873 83.1573 49.8602C82.352 51.9331 86.3785 51.7357 86.9825 50.255C87.6871 48.3795 87.4858 46.1091 87.3852 44.1348C87.1838 41.7657 86.7812 39.2979 86.7812 36.83Z" fill="white"/>
<path d="M103.894 41.3711C102.988 38.6071 101.478 36.238 100.27 33.5728C101.277 31.5985 102.283 29.7229 103.29 27.7487C104.095 25.9718 104.8 23.8989 106.411 22.7143C107.015 22.2207 107.015 21.8259 106.109 21.7272C105.203 21.6285 103.995 21.9246 103.29 22.4182C101.78 23.6027 100.874 24.9847 100.069 26.6628C99.0622 28.7358 98.1562 30.7101 97.0489 32.6843C96.9482 32.783 96.8475 32.9805 96.8475 33.0792C96.3442 33.3753 96.0422 33.8689 96.2436 34.3625C95.4382 35.9419 94.6329 37.4226 93.727 39.002C93.425 33.474 92.7203 27.9461 92.519 22.4182C92.519 21.1349 88.4924 21.9246 88.4924 23.504C88.6938 30.3152 89.7004 37.1264 89.8011 44.0364C89.8011 44.0364 89.8011 44.0364 89.8011 44.1351C89.4991 44.4312 89.5997 44.6286 89.9017 44.7273C89.9017 46.5042 89.8011 48.1823 89.7004 49.9591C89.1971 50.7489 90.2037 51.045 90.8077 51.045H90.9084C91.613 51.045 93.5256 50.6501 93.6263 49.663C93.8276 47.59 93.9283 45.5171 93.8276 43.4441C95.4382 41.7659 96.7469 39.7917 97.9549 37.8174C98.7602 39.2981 99.4648 40.7788 99.9681 42.3582C100.874 45.1222 102.283 47.59 103.189 50.354C103.693 52.1308 107.719 51.045 107.216 49.2682C106.31 46.6029 104.901 44.0364 103.894 41.3711Z" fill="white"/>
<path d="M127.852 36.7316C127.651 35.9419 126.443 35.8431 125.537 35.9419C125.537 35.6457 125.537 35.2509 125.537 34.9547C125.437 32.2895 125.336 29.6242 125.135 26.959C124.933 24.4911 123.524 23.6027 121.108 23.7014C118.692 23.8001 115.773 24.195 113.457 25.0834C110.84 26.0705 109.33 28.0448 108.827 30.7101C108.223 33.6715 109.028 36.929 109.23 39.8904C109.431 43.3453 109.33 46.899 109.33 50.354C109.33 50.9463 113.357 50.354 113.357 49.2681C113.357 46.5042 113.357 43.7402 113.357 40.9762C113.357 40.1865 113.256 39.3968 113.256 38.5084C114.665 37.9161 116.981 38.5084 118.39 38.6071C119.497 38.7058 120.605 38.4097 121.712 38.311C121.712 40.5814 121.813 42.9505 121.913 45.2209C121.913 46.4055 122.417 48.7746 121.511 49.7617C121.108 50.2553 123.021 50.0578 123.121 50.0578C123.927 49.9591 124.933 49.663 125.437 48.972C126.443 47.8862 125.94 45.2209 125.839 43.8389C125.738 41.9634 125.738 39.9891 125.738 38.1135C126.745 38.311 128.054 37.5213 127.852 36.7316ZM112.954 36.5341C112.853 35.2509 112.753 34.0663 112.652 32.783C112.451 30.4139 112.753 27.2551 114.967 25.7744C115.571 25.3795 116.679 25.4783 117.383 25.3795C118.39 25.1821 119.397 24.9847 120.303 25.577C121.511 26.3667 121.209 29.2294 121.209 30.4139C121.209 32.3882 121.41 34.3624 121.511 36.4354C120.907 36.5341 120.403 36.5341 119.799 36.5341C117.484 36.4354 115.169 36.1393 112.954 36.5341Z" fill="white"/>
<path d="M49.1328 24.9843C49.6361 24.8856 50.2401 24.7869 50.6427 24.4908C50.7434 24.3921 50.8441 24.3921 50.9447 24.2933C51.4481 23.9972 51.9514 23.5036 51.6494 22.9114C51.1461 21.8255 51.2467 20.641 51.2467 19.5551C51.2467 18.568 50.2401 18.2718 49.4348 18.3705C48.7301 18.4693 47.2202 18.9628 47.2202 19.8512C47.2202 20.8384 47.1195 21.8255 47.3208 22.8126C47.3208 22.9114 47.2202 23.0101 47.2202 23.2075C47.1195 23.4049 47.2202 23.6023 47.3208 23.7998V23.8985C47.3208 23.9972 47.3208 24.0959 47.3208 24.1946C47.4215 24.3921 47.5222 24.5895 47.7235 24.6882C48.1261 24.9843 48.6295 24.9843 49.1328 24.9843Z" fill="white"/>
</svg>
